<?xml version="1.0" standalone="no"?>
<!DOCTYPE svg PUBLIC "-//W3C//DTD SVG 20010904//EN"
 "http://www.w3.org/TR/2001/REC-SVG-20010904/DTD/svg10.dtd">
<svg version="1.0" xmlns="http://www.w3.org/2000/svg"
 width="1024.000000pt" height="1024.000000pt" viewBox="0 0 1024.000000 1024.000000"
 preserveAspectRatio="xMidYMid meet">
<metadata>
Created by potrace 1.14, written by Peter Selinger 2001-2017
</metadata>
<g transform="translate(0.000000,1024.000000) scale(0.100000,-0.100000)"
fill="#000000" stroke="none">
<path d="M1199 10096 c-203 -52 -344 -195 -396 -400 l-22 -91 0 -3705 0 -3705
22 -91 c52 -208 193 -349 401 -401 l91 -22 1000 -1 1000 0 755 -753 c456 -456
775 -766 806 -786 58 -35 222 -81 294 -81 72 0 236 46 294 81 31 20 350 330
806 786 l755 753 975 0 975 1 91 22 c208 52 349 193 401 401 l22 91 0 3705 0
3705 -22 91 c-52 208 -193 349 -401 401 l-91 22 -3835 0 -3835 -1 -86 -22z
m7761 -307 c66 -14 127 -62 159 -124 l26 -49 3 -3686 c1 -2626 -1 -3700 -9
-3738 -14 -68 -61 -129 -124 -161 l-49 -26 -1051 -3 -1050 -2 -795 -794 c-772
-772 -797 -795 -849 -810 -68 -20 -74 -20 -142 0 -52 15 -77 38 -849 810
l-795 794 -1075 2 -1076 3 -49 26 c-63 32 -110 93 -124 161 -8 38 -10 1112 -9
3738 l3 3686 25 48 c31 61 85 105 147 122 64 17 7603 20 7683 3z"/>
<path d="M6063 7389 c-332 -48 -620 -215 -794 -462 -254 -360 -321 -923 -167
-1407 132 -417 423 -684 858 -787 140 -33 442 -43 595 -19 541 83 886 415
1005 971 31 142 39 483 16 643 -87 594 -452 971 -1021 1057 -110 16 -389 18
-492 4z m434 -440 c318 -80 506 -343 545 -762 27 -287 -29 -563 -151 -749
-145 -221 -400 -339 -666 -308 -169 19 -294 79 -410 196 -163 164 -245 409
-245 729 0 318 82 565 241 724 76 76 149 123 247 157 133 46 291 51 439 13z"/>
<path d="M2820 7351 c-104 -32 -160 -106 -160 -211 0 -88 38 -152 115 -193 38
-21 56 -22 385 -27 l345 -5 5 -1010 c5 -941 6 -1013 23 -1049 47 -105 125
-156 239 -156 113 0 189 45 235 138 l28 57 3 1012 2 1012 348 3 c333 3 349 4
387 25 77 41 115 105 115 193 0 88 -38 152 -115 193 l-40 22 -945 2 c-520 1
-956 -2 -970 -6z"/>
</g>
</svg>
